<?xml version="1.0" standalone="no"?>
<!DOCTYPE svg PUBLIC "-//W3C//DTD SVG 20010904//EN"
 "http://www.w3.org/TR/2001/REC-SVG-20010904/DTD/svg10.dtd">
<svg version="1.0" xmlns="http://www.w3.org/2000/svg"
 width="1588.000000pt" height="780.000000pt" viewBox="0 0 1588.000000 780.000000"
 preserveAspectRatio="xMidYMid meet">

<g transform="translate(0.000000,780.000000) scale(0.100000,-0.100000)"
fill="#000000" stroke="none">
<path d="M214 5277 c-2 -7 -3 -76 -2 -152 l3 -140 1102 0 c607 0 1103 -3 1103
-6 0 -3 -10 -14 -21 -25 -12 -10 -51 -57 -88 -104 -54 -70 -740 -934 -1040
-1310 -42 -53 -177 -223 -301 -379 -124 -156 -323 -408 -444 -560 -120 -152
-247 -312 -282 -355 l-64 -79 0 -118 0 -119 1373 2 1372 3 0 145 0 145 -1138
5 -1138 5 104 130 c57 72 256 324 443 560 186 237 393 498 459 581 66 83 192
242 280 354 285 362 570 722 813 1028 l123 154 -3 122 -3 121 -1323 3 c-1079
2 -1324 0 -1328 -11z"/>
<path d="M4330 4460 c-185 -19 -299 -54 -450 -141 -139 -79 -220 -140 -313
-239 -129 -135 -201 -264 -261 -466 -40 -138 -56 -253 -56 -422 0 -220 37
-422 107 -580 35 -80 143 -236 216 -313 199 -210 390 -311 697 -370 408 -78
884 41 1164 291 47 41 85 79 85 83 1 6 -122 165 -171 221 -4 6 -34 -16 -70
-50 -117 -112 -253 -192 -386 -228 -332 -89 -713 -32 -939 140 -42 33 -92 75
-111 94 -53 54 -157 191 -174 230 -39 88 -79 225 -84 293 -7 72 -6 74 17 80
13 4 489 7 1058 7 l1033 0 -7 128 c-20 370 -96 589 -291 839 -113 144 -324
285 -520 348 -159 50 -373 72 -544 55z m353 -305 c37 -8 110 -33 161 -55 77
-34 112 -57 195 -131 144 -128 198 -206 272 -397 34 -90 57 -208 42 -223 -9
-9 -1762 -14 -1771 -4 -18 18 48 268 96 361 21 41 122 179 164 224 123 133
281 205 533 244 52 8 237 -3 308 -19z"/>
<path d="M7540 4460 c-121 -11 -199 -27 -295 -61 -215 -76 -379 -197 -488
-362 -22 -32 -41 -56 -44 -53 -3 3 -6 107 -7 233 l-1 228 -155 3 -156 3 1
-1261 0 -1260 167 0 167 0 4 773 c3 653 6 780 19 827 78 279 240 467 487 564
133 53 183 60 381 60 159 -1 182 -3 256 -26 114 -37 180 -70 245 -125 109 -94
179 -210 220 -364 20 -77 23 -115 28 -439 3 -195 5 -559 5 -807 -1 -249 1
-453 4 -453 3 0 66 32 141 72 75 39 148 78 164 85 l27 14 0 537 c-1 638 -11
966 -36 1072 -30 134 -117 314 -196 405 -86 100 -226 211 -291 231 -12 3 -62
22 -110 41 -135 52 -363 79 -537 63z"/>
<path d="M8657 1953 c-9 -2 -15 -8 -13 -12 7 -10 66 -1 66 10 0 9 -22 10 -53
2z"/>
</g>
</svg>
